<svg xmlns="http://www.w3.org/2000/svg" width="49" height="49" viewBox="0 0 49 49">
  <g id="vuesax_twotone_box" data-name="vuesax/twotone/box" transform="translate(-108 -188)">
    <g id="box" transform="translate(108 188)">
      <g id="Group_642" data-name="Group 642" transform="translate(4.94 13.659)">
        <path id="Union_4" data-name="Union 4" d="M-757.913-1820.2v-17.613l-17.264-9.991a1.531,1.531,0,0,1-.558-2.093,1.531,1.531,0,0,1,2.092-.558l17.26,9.989,17.139-9.928a1.532,1.532,0,0,1,2.093.558,1.532,1.532,0,0,1-.558,2.093l-17.141,9.929v17.614a1.531,1.531,0,0,1-1.531,1.532A1.532,1.532,0,0,1-757.913-1820.2Z" transform="translate(775.94 1850.659)" fill="#fbae2d" opacity="0.41"/>
      </g>
      <path id="Vector" d="M20.422-.75h0A10.509,10.509,0,0,1,25.384.4L36.3,6.469a11.13,11.13,0,0,1,5.279,8.954V26.958a11.13,11.13,0,0,1-5.281,8.955l-10.9,6.062a10.473,10.473,0,0,1-4.981,1.158,10.471,10.471,0,0,1-4.977-1.156L4.529,35.912A11.13,11.13,0,0,1-.75,26.958V15.423A11.13,11.13,0,0,1,4.531,6.468L15.433.425A10.374,10.374,0,0,1,20.422-.75Zm-.01,40.821a7.5,7.5,0,0,0,3.5-.774l10.9-6.062a8.166,8.166,0,0,0,3.7-6.277V15.423a8.165,8.165,0,0,0-3.7-6.276L23.9,3.082a7.529,7.529,0,0,0-3.482-.769h0a7.4,7.4,0,0,0-3.5.787L6.015,9.146a8.165,8.165,0,0,0-3.7,6.276V26.958a8.165,8.165,0,0,0,3.7,6.276L16.92,39.3A7.5,7.5,0,0,0,20.412,40.071Z" transform="translate(4.098 3.3)" fill="#fbae2d"/>
      <path id="Vector-2" data-name="Vector" d="M0,0H49V49H0Z" transform="translate(49 49) rotate(180)" fill="none" opacity="0"/>
    </g>
  </g>
</svg>
