<svg xmlns="http://www.w3.org/2000/svg" width="52.212" height="52.212" viewBox="0 0 52.212 52.212">
  <g id="vuesax_twotone_clipboard-text" data-name="vuesax/twotone/clipboard-text" transform="translate(-108 -252)">
    <g id="clipboard-text" transform="translate(108 252)">
      <path id="Vector" d="M16.11,2.513H.882a1.632,1.632,0,0,1,0-3.263H16.11a1.632,1.632,0,0,1,0,3.263Z" transform="translate(16.522 25.66)" fill="#fddeaa"/>
      <path id="Vector-2" data-name="Vector" d="M10.41,2.513H.882a1.632,1.632,0,0,1,0-3.263H10.41a1.632,1.632,0,1,1,0,3.263Z" transform="translate(16.522 34.362)" fill="#fddeaa"/>
      <path id="Union_6" data-name="Union 6" d="M-850.315-1985.015c-5.792,0-9.553-1.213-11.833-3.82-2.513-2.872-2.851-7.1-2.851-10.865v-13.053c0-5.3,1-8.855,3.155-11.185,1.759-1.9,4.2-2.957,7.81-3.339a4.9,4.9,0,0,1,2-3.694,6.7,6.7,0,0,1,3.9-.818h8.7a6.707,6.707,0,0,1,3.9.818,4.9,4.9,0,0,1,2,3.694c3.611.381,6.053,1.432,7.81,3.33,2.154,2.327,3.156,5.884,3.156,11.194v13.053c0,3.761-.339,7.993-2.851,10.865-2.281,2.606-6.041,3.82-11.833,3.82Zm-9.132-36.708c-1.54,1.668-2.289,4.6-2.289,8.971v13.053c0,4.472.611,7.078,2.044,8.716,1.615,1.846,4.594,2.706,9.377,2.706h13.054c4.782,0,7.762-.86,9.377-2.706,1.433-1.637,2.044-4.244,2.044-8.716v-13.053c0-4.378-.749-7.314-2.288-8.978-1.136-1.228-2.836-1.947-5.408-2.261a4.808,4.808,0,0,1-.736,2.083c-.936,1.4-2.625,2.086-5.165,2.086h-8.7a6.7,6.7,0,0,1-3.9-.818,4.732,4.732,0,0,1-1.948-3.358C-856.584-2023.687-858.3-2022.964-859.448-2021.723Zm9.221-6.531c-.408.272-.633,1.142-.633,2.449s.225,2.178.633,2.45a4.56,4.56,0,0,0,2.086.27h8.7c1.308,0,2.178-.225,2.45-.634a4.556,4.556,0,0,0,.27-2.086c0-1.307-.225-2.177-.634-2.449a4.556,4.556,0,0,0-2.086-.27h-8.7A4.56,4.56,0,0,0-850.226-2028.254Z" transform="translate(869.895 2034.507)" fill="#fbae2d"/>
      <path id="Vector-3" data-name="Vector" d="M0,0H52.212V52.212H0Z" fill="none" opacity="0"/>
    </g>
  </g>
</svg>
