<svg id="Group_11" data-name="Group 11" xmlns="http://www.w3.org/2000/svg" width="33.457" height="33.457" viewBox="0 0 33.457 33.457">
  <g id="profile-circle" transform="translate(0 0)">
    <path id="Vector" d="M5.035,10.472a1.044,1.044,0,0,1-.144-.01.484.484,0,0,0-.061,0,1.046,1.046,0,0,1-.165.007,5.618,5.618,0,1,1,.406,0ZM4.868,1.341a3.521,3.521,0,0,0-.2,7.038,2.445,2.445,0,0,1,.4,0,3.521,3.521,0,0,0-.2-7.037Z" transform="translate(11.86 8.389)" fill="#fbae2c" opacity="0.4"/>
    <path id="Vector-2" data-name="Vector" d="M9.691,10.493A14.923,14.923,0,0,1-.411,6.566a1.045,1.045,0,0,1-.334-.882A6.165,6.165,0,0,1,2.179,1.331,13.708,13.708,0,0,1,9.7-.75a13.6,13.6,0,0,1,7.5,2.079,6.167,6.167,0,0,1,2.926,4.355,1.045,1.045,0,0,1-.334.882A14.923,14.923,0,0,1,9.691,10.493ZM1.436,5.4a12.834,12.834,0,0,0,8.255,3,12.834,12.834,0,0,0,8.255-3,4.505,4.505,0,0,0-1.91-2.339A11.5,11.5,0,0,0,9.7,1.341a11.6,11.6,0,0,0-6.36,1.728A4.5,4.5,0,0,0,1.436,5.4Z" transform="translate(7.037 21.221)" fill="#fbae2c" opacity="0.34"/>
    <path id="Vector-3" data-name="Vector" d="M14.236-.75a14.986,14.986,0,0,1,10.6,25.582A14.986,14.986,0,0,1,3.639,3.639,14.888,14.888,0,0,1,14.236-.75Zm0,27.88A12.895,12.895,0,1,0,1.341,14.236,12.909,12.909,0,0,0,14.236,27.13Z" transform="translate(2.493 2.493)" fill="#fbae2c"/>
    <path id="Vector-4" data-name="Vector" d="M0,0H33.456V33.457H0Z" transform="translate(33.456 33.457) rotate(180)" fill="none" opacity="0"/>
  </g>
</svg>
