<svg xmlns="http://www.w3.org/2000/svg" width="59.498" height="59.498" viewBox="0 0 59.498 59.498">
  <g id="vuesax_twotone_money-send" data-name="vuesax/twotone/money-send" transform="translate(-421.095 -444)">
    <g id="money-send" transform="translate(421.095 444)">
      <g id="Group_68" data-name="Group 68" transform="translate(21.692 16.734)">
        <path id="Vector" d="M9.91,20.347H5.249a6.108,6.108,0,0,1-6-6.2,1.859,1.859,0,1,1,3.719,0,2.389,2.389,0,0,0,2.281,2.479H9.91a1.845,1.845,0,0,0,1.735-1.934c0-1.349-.4-1.55-1.218-1.843l-7.451-2.6A5.082,5.082,0,0,1-.725,4.9,5.562,5.562,0,0,1,4.729-.75H9.389a6.108,6.108,0,0,1,6,6.2,1.859,1.859,0,0,1-3.719,0A2.389,2.389,0,0,0,9.389,2.969H4.729A1.845,1.845,0,0,0,2.993,4.9c0,1.355.352,1.534,1.218,1.843l7.451,2.6a5.082,5.082,0,0,1,3.7,5.35A5.562,5.562,0,0,1,9.91,20.347Z" transform="translate(0.75 3.204)" fill="#fbae2d"/>
        <path id="Vector-2" data-name="Vector" d="M1.109,25.28A1.859,1.859,0,0,1-.75,23.421V1.109a1.859,1.859,0,0,1,3.719,0V23.421A1.859,1.859,0,0,1,1.109,25.28Z" transform="translate(6.948 0.75)" fill="#fbae2d"/>
      </g>
      <path id="Vector-3" data-name="Vector" d="M25.9,52.55a26.65,26.65,0,0,1,0-53.3,1.859,1.859,0,0,1,0,3.719A22.931,22.931,0,1,0,48.832,25.9a1.859,1.859,0,1,1,3.719,0A26.68,26.68,0,0,1,25.9,52.55Z" transform="translate(3.849 3.849)" fill="#fddfab"/>
      <path id="Union_2" data-name="Union 2" d="M-1784.245-1618.125a1.86,1.86,0,0,1,0-2.629l9.221-9.221h-5.427a1.859,1.859,0,0,1-1.859-1.859,1.859,1.859,0,0,1,1.859-1.859h9.889a1.854,1.854,0,0,1,1.342.545,1.863,1.863,0,0,1,.3.4,1.851,1.851,0,0,1,.243.919v9.916a1.859,1.859,0,0,1-1.859,1.859,1.859,1.859,0,0,1-1.859-1.859v-5.427l-9.221,9.221a1.85,1.85,0,0,1-1.315.545A1.852,1.852,0,0,1-1784.245-1618.125Z" transform="translate(1825.075 1636.793)" fill="#fbae2d"/>
      <path id="Vector-4" data-name="Vector" d="M0,0H59.5V59.5H0Z" fill="none" opacity="0"/>
    </g>
  </g>
</svg>
