<svg id="global" xmlns="http://www.w3.org/2000/svg" width="33.457" height="33.457" viewBox="0 0 33.457 33.457">
  <g id="global-2" data-name="global" transform="translate(0 0)">
    <path id="Vector" d="M14.236-.75a14.986,14.986,0,0,1,10.6,25.582A14.986,14.986,0,0,1,3.639,3.639,14.888,14.888,0,0,1,14.236-.75Zm0,27.88A12.895,12.895,0,1,0,1.341,14.236,12.909,12.909,0,0,0,14.236,27.13Z" transform="translate(2.493 2.493)" fill="#fbae2c"/>
    <g id="Group_722" data-name="Group 722" transform="translate(3.136 3.136)" opacity="0.4">
      <path id="Vector-2" data-name="Vector" d="M2.334,26.433H.94a1.046,1.046,0,0,1-.03-2.091,40.674,40.674,0,0,1,0-23A1.046,1.046,0,0,1,.94-.75H2.334A1.046,1.046,0,0,1,3.326.627a38.806,38.806,0,0,0,0,24.43,1.046,1.046,0,0,1-.992,1.377Z" transform="translate(7.075 0.75)" fill="#fbae2c"/>
      <path id="Vector-3" data-name="Vector" d="M.3,26.434A1.046,1.046,0,0,1-.7,25.057,38.806,38.806,0,0,0-.7.627,1.046,1.046,0,1,1,1.287-.036,40.585,40.585,0,0,1,3.38,12.842,40.585,40.585,0,0,1,1.287,25.719,1.046,1.046,0,0,1,.3,26.434Z" transform="translate(17.478 0.75)" fill="#fbae2c"/>
      <path id="Vector-4" data-name="Vector" d="M12.842,3.38a40.576,40.576,0,0,1-11.5-1.66A1.046,1.046,0,0,1-.75,1.69V.3A1.046,1.046,0,0,1,.627-.7a38.806,38.806,0,0,0,24.43,0A1.046,1.046,0,0,1,26.433.3V1.69a1.046,1.046,0,0,1-2.091.03A40.576,40.576,0,0,1,12.842,3.38Z" transform="translate(0.75 17.479)" fill="#fbae2c"/>
      <path id="Vector-5" data-name="Vector" d="M25.388,3.38a1.044,1.044,0,0,1-.331-.054,38.806,38.806,0,0,0-24.43,0A1.046,1.046,0,0,1-.036,1.343a40.668,40.668,0,0,1,25.755,0,1.046,1.046,0,0,1-.331,2.037Z" transform="translate(0.75 7.076)" fill="#fbae2c"/>
    </g>
    <path id="Vector-6" data-name="Vector" d="M0,0H33.456V33.457H0Z" transform="translate(33.456 33.457) rotate(180)" fill="none" opacity="0"/>
  </g>
</svg>
