<svg id="vuesax_twotone_logout" data-name="vuesax/twotone/logout" xmlns="http://www.w3.org/2000/svg" width="33.457" height="33.457" viewBox="0 0 33.457 33.457">
  <g id="logout" transform="translate(0 0)">
    <path id="Vector" d="M9.134,27.883H8.952c-3.127,0-5.32-.59-6.9-1.857C.437,24.737-.472,22.759-.732,19.979a1.046,1.046,0,1,1,2.082-.194c.207,2.216.844,3.68,2,4.609,1.176.941,3.007,1.4,5.6,1.4h.181c2.893,0,4.787-.547,5.961-1.72s1.72-3.068,1.72-5.961V9.022c0-2.893-.547-4.787-1.72-5.961s-3.068-1.72-5.961-1.72H8.952c-2.609,0-4.449.464-5.625,1.418s-1.8,2.436-1.99,4.694A1.046,1.046,0,1,1-.746,7.273C-.268,1.725,2.723-.75,8.952-.75h.181c3.484,0,5.848.741,7.439,2.333s2.333,3.955,2.333,7.439v9.089c0,3.484-.741,5.848-2.333,7.439S12.617,27.883,9.134,27.883Z" transform="translate(12.111 3.176)" fill="#fa0000"/>
    <g id="Group_656" data-name="Group 656" transform="translate(2.44 11.013)" opacity="0.4">
      <path id="Vector-2" data-name="Vector" d="M16.159,1.341H.3A1.046,1.046,0,0,1,.3-.75H16.159a1.046,1.046,0,0,1,0,2.091Z" transform="translate(2.31 5.419)" fill="#fa0000"/>
      <path id="Vector-3" data-name="Vector" d="M4.965,10.681a1.042,1.042,0,0,1-.739-.306L-.444,5.7a1.046,1.046,0,0,1,0-1.479l4.67-4.67A1.046,1.046,0,0,1,5.7,1.035L1.774,4.965,5.7,8.9a1.046,1.046,0,0,1-.739,1.785Z" transform="translate(0.75 0.75)" fill="#fa0000"/>
    </g>
    <path id="Vector-4" data-name="Vector" d="M0,0H33.456V33.457H0Z" transform="translate(33.456 33.457) rotate(180)" fill="none" opacity="0"/>
  </g>
</svg>
