<?xml version="1.0" encoding="UTF-8"?><svg id="Layer_1" xmlns="http://www.w3.org/2000/svg" xmlns:xlink="http://www.w3.org/1999/xlink" viewBox="0 0 140.39 217.76"><defs><style>.cls-1{fill:url(#linear-gradient-2);}.cls-2{fill:url(#linear-gradient-3);}.cls-3{fill:url(#linear-gradient);}.cls-4{fill:url(#linear-gradient-4);}</style><linearGradient id="linear-gradient" x1="132.66" y1=".75" x2="1.17" y2="211.75" gradientTransform="matrix(1, 0, 0, 1, 0, 0)" gradientUnits="userSpaceOnUse"><stop offset="0" stop-color="#70c9be"/><stop offset="1" stop-color="#34c4f3"/></linearGradient><linearGradient id="linear-gradient-2" x1="140.3" y1="5.51" x2="8.8" y2="216.51" xlink:href="#linear-gradient"/><linearGradient id="linear-gradient-3" x1="146.71" y1="9.5" x2="15.21" y2="220.5" xlink:href="#linear-gradient"/><linearGradient id="linear-gradient-4" x1="150.23" y1="11.7" x2="18.74" y2="222.7" xlink:href="#linear-gradient"/></defs><path class="cls-3" d="M73.66,122.74s-29.15-35.97-31.29-54.64c-1.9,2.86-3.8,5.61-5.68,8.24,2.11,16.65,31.83,53.94,33.49,56.33,5.04,6.71,8.04,11.64,8.04,14.9,0,4.43-3.6,8.03-8.03,8.03s-8.03-3.6-8.03-8.03c0-1.96,1.09-4.49,2.83-7.39-1.18-1.73-3.15-4.34-5.58-7.6-3.69,5.47-6.06,10.38-6.06,14.99,0,9.28,7.55,16.84,16.84,16.84s16.84-7.55,16.84-16.84c0-6.58-4.5-13.52-13.37-24.82Z"/><path class="cls-1" d="M88.21,113.26c-4.94-6.19-29.37-37.03-35.1-62.88-1.89,3.47-3.86,6.84-5.87,10.1,2.8,19.2,30.65,53.96,34.09,58.27,7.88,9.88,14.69,18.41,14.69,28.8,0,14.24-11.58,25.82-25.82,25.82s-25.82-11.58-25.82-25.82c0-8.07,4.12-15.03,9.65-22.36-1.7-2.38-3.49-4.92-5.28-7.59-7.15,9.18-13.17,18.31-13.17,29.95,0,19.09,15.53,34.62,34.62,34.62s34.62-15.53,34.62-34.62c0-13.47-8.07-23.59-16.61-34.3Z"/><path class="cls-2" d="M100.02,100.02c-22.2-28.55-33.58-49.78-37.3-70.12l-4.71,10.89c2.64,13.16,7.39,22.44,12.18,31.25,7.01,13.5,15.4,24.01,22.94,33.47,11.55,14.47,20.66,25.91,20.66,42.05,0,24.04-19.56,43.6-43.6,43.6s-43.6-19.56-43.6-43.6c0-14.47,7.34-25.17,17.18-37.66-1.65-2.67-3.25-5.41-4.76-8.18-11.53,14.48-21.23,27.34-21.23,45.84,0,28.9,23.51,52.41,52.41,52.41s52.41-23.51,52.41-52.41c0-19.22-10.66-32.2-22.59-47.54Z"/><path class="cls-4" d="M111.74,87.18C95.88,66.54,73.52,33.81,70.2,0c-.66,6.67-2.06,13.29-4,19.78,6.81,30.63,26.02,56.44,38.56,72.77,14.4,18.74,26.83,34.93,26.83,55.01,0,33.85-27.54,61.39-61.39,61.39s-61.39-27.54-61.39-61.39c0-19.75,12.02-35.73,26.11-54.07-1.47-3.27-2.74-6.53-3.69-9.7-.87,1.16-1.73,2.3-2.57,3.39C13.92,106.37,0,124.48,0,147.56c0,38.71,31.49,70.2,70.2,70.2s70.2-31.49,70.2-70.2c0-23.08-13.92-41.2-28.65-60.38Z"/></svg>