<svg id="vuesax_twotone_setting-3" data-name="vuesax/twotone/setting-3" xmlns="http://www.w3.org/2000/svg" width="53.17" height="53.17" viewBox="0 0 53.17 53.17">
  <g id="setting-3" transform="translate(0 0)">
    <path id="Vector" d="M29.712,46.882H16.419c-6.138,0-10.295-1.3-13.083-4.087S-.75,35.85-.75,29.712V16.419c0-6.138,1.3-10.295,4.087-13.083S10.282-.75,16.419-.75H29.712c6.138,0,10.295,1.3,13.083,4.087s4.087,6.945,4.087,13.083V29.712c0,6.138-1.3,10.295-4.087,13.083S35.85,46.882,29.712,46.882ZM16.419,2.573c-5.2,0-8.609.989-10.733,3.113S2.573,11.221,2.573,16.419V29.712c0,5.2.989,8.609,3.113,10.733s5.535,3.113,10.733,3.113H29.712c5.2,0,8.609-.989,10.733-3.113s3.113-5.535,3.113-10.733V16.419c0-5.2-.989-8.609-3.113-10.733S34.91,2.573,29.712,2.573Z" transform="translate(3.519 3.519)" fill="#fbae2d"/>
    <g id="Group_632" data-name="Group 632" transform="translate(11.255 10.523)" opacity="0.4">
      <path id="Vector-2" data-name="Vector" d="M.912,11.213A1.662,1.662,0,0,1-.75,9.552V.912a1.662,1.662,0,1,1,3.323,0v8.64A1.662,1.662,0,0,1,.912,11.213Z" transform="translate(22.329 20.909)" fill="#fbae2d"/>
      <path id="Vector-3" data-name="Vector" d="M.912,6.893A1.662,1.662,0,0,1-.75,5.232V.912a1.662,1.662,0,1,1,3.323,0v4.32A1.662,1.662,0,0,1,.912,6.893Z" transform="translate(22.329 0.75)" fill="#fbae2d"/>
      <path id="Vector-4" data-name="Vector" d="M6.672,14.093a7.422,7.422,0,1,1,7.422-7.422A7.43,7.43,0,0,1,6.672,14.093Zm0-11.52a4.1,4.1,0,1,0,4.1,4.1A4.1,4.1,0,0,0,6.672,2.573Z" transform="translate(16.567 5.07)" fill="#fbae2d"/>
      <path id="Vector-5" data-name="Vector" d="M.912,6.893A1.662,1.662,0,0,1-.75,5.232V.912a1.662,1.662,0,0,1,3.323,0v4.32A1.662,1.662,0,0,1,.912,6.893Z" transform="translate(6.509 25.23)" fill="#fbae2d"/>
      <path id="Vector-6" data-name="Vector" d="M.912,11.213A1.662,1.662,0,0,1-.75,9.552V.912a1.662,1.662,0,1,1,3.323,0v8.64A1.662,1.662,0,0,1,.912,11.213Z" transform="translate(6.509 0.75)" fill="#fbae2d"/>
      <path id="Vector-7" data-name="Vector" d="M6.672-.75A7.422,7.422,0,1,1-.75,6.672,7.43,7.43,0,0,1,6.672-.75Zm0,11.52a4.1,4.1,0,1,0-4.1-4.1A4.1,4.1,0,0,0,6.672,10.77Z" transform="translate(0.75 13.709)" fill="#fbae2d"/>
    </g>
    <path id="Vector-8" data-name="Vector" d="M0,0H53.17V53.17H0Z" fill="none" opacity="0"/>
  </g>
</svg>
