<svg id="vuesax_twotone_people" data-name="vuesax/twotone/people" xmlns="http://www.w3.org/2000/svg" width="33.457" height="33.457" viewBox="0 0 33.457 33.457">
  <g id="people" transform="translate(0 0)">
    <path id="Vector" d="M4.018,8.534a1.046,1.046,0,0,1-.132-.008,1.047,1.047,0,0,1-.17.008A4.643,4.643,0,1,1,8.534,3.892s0,0,0,.007A4.65,4.65,0,0,1,4.055,8.534ZM3.892,1.341a2.553,2.553,0,0,0-.175,5.1,1.923,1.923,0,0,1,.337,0,2.552,2.552,0,0,0-.161-5.1Z" transform="translate(21.071 2.493)" fill="#fbae2c" opacity="0.4"/>
    <path id="Vector-2" data-name="Vector" d="M1.774,8.347a9.737,9.737,0,0,1-1.61-.134A1.046,1.046,0,0,1,.51,6.151a6.811,6.811,0,0,0,4.738-.841,1.928,1.928,0,0,0,1.01-1.515A1.926,1.926,0,0,0,5.25,2.28a6.829,6.829,0,0,0-4.774-.83A1.046,1.046,0,0,1,.115-.609,8.99,8.99,0,0,1,6.408.539,3.98,3.98,0,0,1,8.35,3.794,3.978,3.978,0,0,1,6.41,7.048,8.417,8.417,0,0,1,1.774,8.347Z" transform="translate(23.316 12.948)" fill="#fbae2c" opacity="0.4"/>
    <path id="Vector-3" data-name="Vector" d="M4.032,8.534A1.046,1.046,0,0,1,3.9,8.526a1.047,1.047,0,0,1-.17.008A4.65,4.65,0,0,1-.75,3.9s0,0,0-.007A4.642,4.642,0,1,1,4.069,8.534ZM3.9,6.433c.057,0,.113,0,.168.007a2.558,2.558,0,1,0-.337,0C3.786,6.435,3.842,6.433,3.9,6.433Z" transform="translate(4.552 2.493)" fill="#fbae2c" opacity="0.4"/>
    <path id="Vector-4" data-name="Vector" d="M5.825,8.347a8.419,8.419,0,0,1-4.637-1.3A3.977,3.977,0,0,1-.75,3.794,3.978,3.978,0,0,1,1.19.541,8.991,8.991,0,0,1,7.484-.609a1.046,1.046,0,1,1-.361,2.06,6.83,6.83,0,0,0-4.776.831A1.924,1.924,0,0,0,1.341,3.794,1.926,1.926,0,0,0,2.35,5.308a6.811,6.811,0,0,0,4.739.843,1.046,1.046,0,0,1,.346,2.062A9.739,9.739,0,0,1,5.825,8.347Z" transform="translate(2.493 12.948)" fill="#fbae2c" opacity="0.4"/>
    <g id="Group" transform="translate(10.152 12.156)">
      <path id="Vector-5" data-name="Vector" d="M4.018,8.534a1.047,1.047,0,0,1-.133-.008,1.047,1.047,0,0,1-.17.008A4.643,4.643,0,1,1,8.534,3.892s0,0,0,.007A4.629,4.629,0,0,1,4.048,8.534Zm-.133-2.1c.058,0,.116,0,.173.008a2.55,2.55,0,1,0-.342,0C3.772,6.435,3.828,6.433,3.885,6.433Z" transform="translate(2.559 0.75)" fill="#fbae2c"/>
      <path id="Vector-6" data-name="Vector" d="M5.832-.75A8.421,8.421,0,0,1,10.463.534,3.978,3.978,0,0,1,12.4,3.788a3.978,3.978,0,0,1-1.94,3.254A8.411,8.411,0,0,1,5.826,8.336a8.412,8.412,0,0,1-4.638-1.3A3.977,3.977,0,0,1-.75,3.788,3.978,3.978,0,0,1,1.19.534,8.476,8.476,0,0,1,5.832-.75ZM5.826,6.245A6.4,6.4,0,0,0,9.3,5.3a1.927,1.927,0,0,0,1.01-1.515A1.926,1.926,0,0,0,9.3,2.274a6.412,6.412,0,0,0-3.471-.933,6.464,6.464,0,0,0-3.484.934A1.924,1.924,0,0,0,1.341,3.788,1.926,1.926,0,0,0,2.35,5.3,6.4,6.4,0,0,0,5.826,6.245Z" transform="translate(0.75 11.226)" fill="#fbae2c"/>
    </g>
    <path id="Vector-7" data-name="Vector" d="M0,0H33.456V33.457H0Z" fill="none" opacity="0"/>
  </g>
</svg>
