<svg xmlns="http://www.w3.org/2000/svg" width="51.548" height="51.548" viewBox="0 0 51.548 51.548">
  <g id="vuesax_twotone_receipt-item" data-name="vuesax/twotone/receipt-item" transform="translate(-172 -188)">
    <g id="receipt-item" transform="translate(172 188)">
      <path id="Union_3" data-name="Union 3" d="M-1699.018-1788.123l-3.569-3.59a.57.57,0,0,0-.4-.17.534.534,0,0,0-.322.108l-3.675,2.75a3.71,3.71,0,0,1-2.253.762,3.768,3.768,0,0,1-3.759-3.77v-32.217a10.587,10.587,0,0,1,2.271-7.129c1.761-2.039,4.43-3.073,7.931-3.073h25.832a10.2,10.2,0,0,1,7.16,2.984l.007.008a10.219,10.219,0,0,1,2.977,7.21v5.2a6.772,6.772,0,0,1-7.152,7.152h-5.735v19.868a3.768,3.768,0,0,1-3.772,3.757,3.727,3.727,0,0,1-2.236-.745l-3.678-2.753-.016-.013a.484.484,0,0,0-.3-.1.527.527,0,0,0-.374.154l-3.608,3.608a3.743,3.743,0,0,1-2.664,1.1A3.741,3.741,0,0,1-1699.018-1788.123Zm-1.287-5.864,3.569,3.59a.542.542,0,0,0,.382.153.547.547,0,0,0,.386-.157l3.608-3.608a3.73,3.73,0,0,1,2.652-1.1,3.728,3.728,0,0,1,2.251.759l3.667,2.744a.5.5,0,0,0,.31.107.54.54,0,0,0,.55-.536v-36.513a5.878,5.878,0,0,1,.646-2.685H-1702.8c-2.523,0-4.37.659-5.493,1.958a7.518,7.518,0,0,0-1.488,5.023v32.217a.539.539,0,0,0,.538.548.505.505,0,0,0,.315-.114l3.68-2.754a3.731,3.731,0,0,1,2.255-.751A3.774,3.774,0,0,1-1700.305-1793.987Zm26.331-21.135a3.578,3.578,0,0,0,3.93-3.93v-5.2a7.017,7.017,0,0,0-2.044-4.943,6.989,6.989,0,0,0-4.9-2.038,2.72,2.72,0,0,0-2.721,2.706v13.4Z" transform="translate(1715.685 1837.137)" fill="#fbae2d"/>
      <path id="Vector" d="M0,0H51.548V51.548H0Z" fill="none" opacity="0"/>
      <g id="Group_4" data-name="Group 4" opacity="0.4">
        <path id="Vector-2" data-name="Vector" d="M7.3,2.472H.861a1.611,1.611,0,0,1,0-3.222H7.3a1.611,1.611,0,1,1,0,3.222Z" transform="translate(18.47 27.082)" fill="#fbae2d"/>
        <path id="Vector-3" data-name="Vector" d="M7.3,2.472H.861a1.611,1.611,0,0,1,0-3.222H7.3a1.611,1.611,0,1,1,0,3.222Z" transform="translate(18.47 18.491)" fill="#fbae2d"/>
        <path id="Vector-4" data-name="Vector" d="M1.167,3.3H1.148a2.148,2.148,0,1,1,0-4.3h.019a2.148,2.148,0,1,1,0,4.3Z" transform="translate(11.73 26.774)" fill="#fbae2d"/>
        <path id="Vector-5" data-name="Vector" d="M1.662,3.8H1.642a2.148,2.148,0,0,1,0-4.3h.019a2.148,2.148,0,0,1,0,4.3Z" transform="translate(11.235 17.683)" fill="#fbae2d"/>
      </g>
    </g>
  </g>
</svg>
