<svg xmlns="http://www.w3.org/2000/svg" width="59.611" height="59.611" viewBox="0 0 59.611 59.611">
  <g id="Group_1" data-name="Group 1" transform="translate(-364 -444)">
    <g id="vuesax_twotone_money-recive" data-name="vuesax/twotone/money-recive" transform="translate(364 444)">
      <g id="money-recive">
        <g id="Group_40" data-name="Group 40" transform="translate(21.733 16.766)">
          <path id="Vector" d="M9.93,20.387H5.261A6.12,6.12,0,0,1-.75,14.178a1.863,1.863,0,1,1,3.726,0,2.393,2.393,0,0,0,2.285,2.484H9.93a1.848,1.848,0,0,0,1.739-1.937c0-1.352-.4-1.553-1.221-1.847l-7.465-2.6A5.091,5.091,0,0,1-.725,4.913,5.573,5.573,0,0,1,4.739-.75h4.67A6.12,6.12,0,0,1,15.42,5.459a1.863,1.863,0,0,1-3.726,0A2.393,2.393,0,0,0,9.409,2.976H4.739A1.848,1.848,0,0,0,3,4.913C3,6.271,3.353,6.45,4.221,6.76l7.465,2.6a5.091,5.091,0,0,1,3.708,5.36A5.573,5.573,0,0,1,9.93,20.387Z" transform="translate(0.75 3.209)" fill="#fbae2d"/>
          <path id="Vector-2" data-name="Vector" d="M1.113,25.33A1.863,1.863,0,0,1-.75,23.467V1.113a1.863,1.863,0,0,1,3.726,0V23.467A1.863,1.863,0,0,1,1.113,25.33Z" transform="translate(6.959 0.75)" fill="#fbae2d"/>
        </g>
        <path id="Vector-3" data-name="Vector" d="M25.951,52.652a26.7,26.7,0,0,1,0-53.4,1.863,1.863,0,0,1,0,3.726A22.975,22.975,0,1,0,48.926,25.951a1.863,1.863,0,1,1,3.726,0A26.731,26.731,0,0,1,25.951,52.652Z" transform="translate(3.855 3.855)" fill="#fddfab"/>
        <path id="Union_1" data-name="Union 1" d="M1.864,16.144H1.706l-.021,0h0l-.021,0h0c-.044,0-.089-.011-.132-.019h0l-.02,0h0l-.018,0-.021,0h0a1.846,1.846,0,0,1-.871-.456h0L.58,15.632c-.034-.033-.067-.067-.1-.1l0,0-.01-.011L.457,15.5l0,0A1.855,1.855,0,0,1,0,14.252V4.347a1.863,1.863,0,1,1,3.726,0V9.784L12.965.546A1.862,1.862,0,0,1,15.6,3.179L6.36,12.418H11.8a1.863,1.863,0,0,1,0,3.725Z" transform="translate(40.361 3.105)" fill="#fbae2d"/>
        <path id="Vector-4" data-name="Vector" d="M0,0H59.611V59.611H0Z" fill="none" opacity="0"/>
      </g>
    </g>
  </g>
</svg>
