<svg id="shop" xmlns="http://www.w3.org/2000/svg" width="53.17" height="53.17" viewBox="0 0 53.17 53.17">
  <path id="Vector" d="M7.594,24.727a8.229,8.229,0,0,1-8.3-9.179L.779.746A1.662,1.662,0,0,1,2.432-.75H12.778a1.662,1.662,0,0,1,1.654,1.5l1.462,14.8a8.229,8.229,0,0,1-8.3,9.18ZM3.935,2.573,2.6,15.876A5.021,5.021,0,0,0,3.837,19.8,4.988,4.988,0,0,0,7.594,21.4,4.988,4.988,0,0,0,11.351,19.8a5.023,5.023,0,0,0,1.236-3.925l-1.314-13.3Z" transform="translate(18.991 3.519)" fill="#fbae2d"/>
  <path id="Vector-2" data-name="Vector" d="M9.8,24.727A9.242,9.242,0,0,1,.81,16.612L-.742,1.077A1.662,1.662,0,0,1,.912-.75H7.669c3.382,0,5.738.721,7.414,2.269,1.634,1.51,2.575,3.712,3.05,7.14q0,.03.007.06l.62,6.092A8.875,8.875,0,0,1,9.8,24.727ZM2.747,2.573l1.368,13.7A5.919,5.919,0,0,0,9.8,21.4a5.554,5.554,0,0,0,5.657-6.26l-.617-6.058c-.7-5.051-2.317-6.513-7.167-6.513Z" transform="translate(30.769 3.519)" fill="#fbae2d"/>
  <path id="Vector-3" data-name="Vector" d="M8.263,24.727A8.875,8.875,0,0,1-.7,14.815l.6-6.09q0-.033.008-.066c.475-3.429,1.415-5.631,3.05-7.14C4.63-.029,6.985-.75,10.368-.75h6.757a1.662,1.662,0,0,1,1.653,1.827L17.227,16.606A9.192,9.192,0,0,1,8.263,24.727ZM3.2,9.083l-.595,6.059A5.677,5.677,0,0,0,4,19.583,5.656,5.656,0,0,0,8.263,21.4a5.874,5.874,0,0,0,5.657-5.123L15.289,2.573H10.368C5.518,2.573,3.906,4.034,3.2,9.083Z" transform="translate(4.232 3.519)" fill="#fbae2d"/>
  <g id="Group_680" data-name="Group 680" transform="translate(5.006 23.195)" opacity="0.4">
    <path id="Vector-4" data-name="Vector" d="M26.788,26.455H14.847c-5.559,0-9.332-1.183-11.873-3.724S-.75,16.418-.75,10.859V.912a1.662,1.662,0,0,1,3.323,0v9.947c0,4.62.874,7.646,2.751,9.523s4.9,2.751,9.523,2.751H26.788c4.62,0,7.646-.874,9.523-2.751s2.751-4.9,2.751-9.523V.912a1.662,1.662,0,1,1,3.323,0v9.947c0,5.559-1.183,9.332-3.724,11.873S32.347,26.455,26.788,26.455Z" transform="translate(0.75 0.75)" fill="#fbae2d"/>
    <path id="Vector-5" data-name="Vector" d="M6.45-.75a7.245,7.245,0,0,1,5.332,1.869A7.245,7.245,0,0,1,13.65,6.45v5.539a1.662,1.662,0,0,1-1.662,1.662H.912A1.662,1.662,0,0,1-.75,11.989V6.45A7.245,7.245,0,0,1,1.119,1.119,7.245,7.245,0,0,1,6.45-.75Zm3.877,11.077V6.45c0-2.79-1.087-3.877-3.877-3.877S2.573,3.66,2.573,6.45v3.877Z" transform="translate(15.129 13.556)" fill="#fbae2d"/>
  </g>
  <path id="Vector-6" data-name="Vector" d="M0,0H53.17V53.17H0Z" fill="none" opacity="0"/>
</svg>
