<svg id="Group_10" data-name="Group 10" xmlns="http://www.w3.org/2000/svg" width="33.457" height="33.457" viewBox="0 0 33.457 33.457">
  <g id="convert-3d-cube" transform="translate(0 0)">
    <path id="Vector" d="M.3,11.1A1.046,1.046,0,0,1-.6,9.516L.863,7.076A1.046,1.046,0,1,1,2.656,8.152l-.377.628A8.728,8.728,0,0,0,9.008.3,1.046,1.046,0,1,1,11.1.3,10.734,10.734,0,0,1,7.937,7.937,10.734,10.734,0,0,1,.3,11.1Z" transform="translate(20.615 20.615)" fill="#fbae2c" opacity="0.4"/>
    <path id="Vector-2" data-name="Vector" d="M.3,11.1A1.046,1.046,0,0,1-.75,10.054a10.8,10.8,0,0,1,10.8-10.8,1.046,1.046,0,0,1,.9,1.583L9.486,3.273A1.046,1.046,0,1,1,7.693,2.2l.377-.628a8.728,8.728,0,0,0-6.729,8.485A1.046,1.046,0,0,1,.3,11.1Z" transform="translate(2.493 2.493)" fill="#fbae2c" opacity="0.4"/>
    <g id="Group" transform="translate(17.565 1.743)">
      <g id="Group-2" data-name="Group" transform="translate(0.488 3.415)">
        <path id="Vector-3" data-name="Vector" d="M5.844,4.547a1.045,1.045,0,0,1-.523-.14L-.228,1.2A1.046,1.046,0,1,1,.819-.61l5.024,2.9L10.811-.594a1.046,1.046,0,0,1,1.051,1.808L6.369,4.406A1.045,1.045,0,0,1,5.844,4.547Z" transform="translate(0.75 0.75)" fill="#fbae2c"/>
        <path id="Vector-4" data-name="Vector" d="M.3,7.029A1.046,1.046,0,0,1-.75,5.983V.3A1.046,1.046,0,1,1,1.341.3V5.983A1.046,1.046,0,0,1,.3,7.029Z" transform="translate(6.298 3.942)" fill="#fbae2c"/>
      </g>
      <path id="Vector-5" data-name="Vector" d="M6.33-.75a3.806,3.806,0,0,1,1.8.422l3.347,1.855A3.97,3.97,0,0,1,13.4,4.784V8.325a3.993,3.993,0,0,1-1.918,3.256L8.135,13.436a3.79,3.79,0,0,1-1.815.434,3.732,3.732,0,0,1-1.81-.437l-3.338-1.85A3.97,3.97,0,0,1-.75,8.325V4.784A3.993,3.993,0,0,1,1.168,1.528L4.514-.326l.011-.006A3.872,3.872,0,0,1,6.33-.75Zm-.01,12.529a1.738,1.738,0,0,0,.8-.171l3.348-1.855a1.953,1.953,0,0,0,.841-1.427V4.784a1.93,1.93,0,0,0-.835-1.424l-.006,0L7.121,1.5a1.759,1.759,0,0,0-.791-.162,1.83,1.83,0,0,0-.808.165L2.182,3.357a1.953,1.953,0,0,0-.841,1.427V8.325a1.93,1.93,0,0,0,.835,1.424l.006,0,3.346,1.854.01.006A1.678,1.678,0,0,0,6.319,11.779Z" transform="translate(0.75 0.75)" fill="#fbae2c"/>
    </g>
    <g id="Group-3" data-name="Group" transform="translate(1.743 17.077)">
      <g id="Group-4" data-name="Group" transform="translate(0.488 3.415)">
        <path id="Vector-6" data-name="Vector" d="M5.83,4.547a1.045,1.045,0,0,1-.524-.141L-.229,1.2A1.046,1.046,0,1,1,.82-.609l5.01,2.9L10.812-.595a1.046,1.046,0,1,1,1.049,1.809L6.354,4.406A1.045,1.045,0,0,1,5.83,4.547Z" transform="translate(0.75 0.75)" fill="#fbae2c"/>
        <path id="Vector-7" data-name="Vector" d="M.3,7.029A1.046,1.046,0,0,1-.75,5.983V.3A1.046,1.046,0,1,1,1.341.3V5.983A1.046,1.046,0,0,1,.3,7.029Z" transform="translate(6.284 3.942)" fill="#fbae2c"/>
      </g>
      <path id="Vector-8" data-name="Vector" d="M6.319-.75a3.872,3.872,0,0,1,1.8.418l.011.006,3.344,1.853A3.97,3.97,0,0,1,13.4,4.784V8.325a3.993,3.993,0,0,1-1.918,3.256L8.135,13.436a3.79,3.79,0,0,1-1.815.434,3.732,3.732,0,0,1-1.81-.437l-3.338-1.85A3.97,3.97,0,0,1-.75,8.325V4.784A3.993,3.993,0,0,1,1.168,1.528L4.514-.326A3.809,3.809,0,0,1,6.319-.75Zm.808,2.256a1.83,1.83,0,0,0-.808-.165,1.759,1.759,0,0,0-.8.164L2.182,3.357a1.953,1.953,0,0,0-.841,1.427V8.325a1.93,1.93,0,0,0,.835,1.424l.006,0,3.346,1.854.01.006a1.678,1.678,0,0,0,.781.167,1.738,1.738,0,0,0,.8-.171l3.348-1.855a1.953,1.953,0,0,0,.841-1.427V4.784a1.93,1.93,0,0,0-.835-1.424l-.006,0Z" transform="translate(0.75 0.75)" fill="#fbae2c"/>
    </g>
    <path id="Vector-9" data-name="Vector" d="M0,0H33.456V33.457H0Z" transform="translate(0 0)" fill="none" opacity="0"/>
  </g>
</svg>
