<svg xmlns="http://www.w3.org/2000/svg" width="49" height="49" viewBox="0 0 49 49">
  <g id="vuesax_twotone_truck-tick" data-name="vuesax/twotone/truck-tick" transform="translate(-108 -252)">
    <g id="truck-tick" transform="translate(108 252)">
      <path id="Vector" d="M12.3-.75H27.323A1.531,1.531,0,0,1,28.854.781V21.2a5.621,5.621,0,0,1-5.615,5.615H.781A1.531,1.531,0,0,1-.75,25.281V12.255a1.531,1.531,0,0,1,2.7-.984,6.415,6.415,0,0,0,5.1,2.271A6.353,6.353,0,0,0,11.34,11.8q.036-.034.074-.066a5.4,5.4,0,0,0,1.218-1.51l.02-.035a6.4,6.4,0,0,0,.89-3.428,6.575,6.575,0,0,0-2.255-4.831A1.531,1.531,0,0,1,12.3-.75Zm13.5,3.063H15.453A9.681,9.681,0,0,1,16.6,6.683a9.46,9.46,0,0,1-1.3,5.047,8.506,8.506,0,0,1-1.878,2.319A9.4,9.4,0,0,1,7.12,16.6l-.231,0A9.569,9.569,0,0,1,2.313,15.45v8.3H23.24A2.555,2.555,0,0,0,25.792,21.2Z" transform="translate(3.302 3.302)" fill="#fddeaa"/>
      <path id="Union_5" data-name="Union 5" d="M-1688.288-2001.313h-5.528a5.625,5.625,0,0,1-5.4,4.083,5.624,5.624,0,0,1-5.4-4.083h-.722a7.665,7.665,0,0,1-7.656-7.655v-6.125a1.53,1.53,0,0,1,1.531-1.531h22.459a2.555,2.555,0,0,0,2.552-2.552v-14.292a1.532,1.532,0,0,1,1.532-1.531h3.757a5.664,5.664,0,0,1,4.876,2.824l3.5,6.114.008.014,3.485,6.112a1.538,1.538,0,0,1,.2.759v10.209a7.665,7.665,0,0,1-7.656,7.655h-.722a5.625,5.625,0,0,1-5.4,4.083A5.624,5.624,0,0,1-1688.288-2001.313Zm2.851-1.531a2.555,2.555,0,0,0,2.552,2.552,2.555,2.555,0,0,0,2.552-2.552,2.556,2.556,0,0,0-2.552-2.552A2.555,2.555,0,0,0-1685.437-2002.844Zm-16.333,0a2.555,2.555,0,0,0,2.551,2.552,2.555,2.555,0,0,0,2.552-2.552,2.556,2.556,0,0,0-2.552-2.552A2.555,2.555,0,0,0-1701.77-2002.844Zm25.01-1.531a4.6,4.6,0,0,0,4.594-4.594v-4.594h-4.594q-.092,0-.184,0a3.577,3.577,0,0,1-3.389-3.568v-6.125c0-.02,0-.04,0-.06q0-.085.007-.169s0,0,0,0a3.579,3.579,0,0,1,1.9-2.928l0,0,.035-.018.005,0,.033-.017.007,0,.031-.015.01,0,.029-.014.01,0,.029-.013.015-.007.025-.011.017-.007.023-.01.02-.008.02-.008.022-.009.018-.007.025-.01.015-.006.025-.009.016-.006.026-.01.014-.005.028-.01.013,0,.031-.01.01,0,.032-.01.009,0,.034-.01.008,0,.035-.01.007,0,.039-.011h0l.039-.01h0l.039-.01h0l.038-.009h.005l.038-.009h0l.039-.008h0l.041-.008h0l.038-.007h.006l.037-.006h.007l.038-.006h.005l.039-.006h.006l.038-.005h.006l.038,0h.007l.035,0h.01l.034,0h.011l.033,0h.013l.031,0h.014l.029,0h.2l-2.181-3.813a2.588,2.588,0,0,0-2.223-1.291h-2.226v12.76a5.62,5.62,0,0,1-5.614,5.614h-20.928v4.594a4.6,4.6,0,0,0,4.595,4.594h.722a5.631,5.631,0,0,1,4.457-4h.008l.053-.009h0l.054-.008h0l.053-.008h.007l.054-.007h0l.053-.006h0l.053-.006h.008l.054-.005h0l.052,0h.009l.052,0h.009l.054,0h0l.055,0h.006l.053,0h.01l.053,0h.36l.053,0h.012l.052,0h.008l.051,0h0l.051,0h.012l.049,0h.013l.043,0h.009l.049,0h.014l.047.005.014,0,.039,0,.014,0,.045.006.017,0,.044.006.017,0,.034.005.018,0,.04.007.022,0,.041.007.018,0,.031.006.019,0,.042.008.019,0,.039.008.023.005.027.006.022.005.038.009.023.005.028.007.033.008.022.006.03.008.031.008.025.007.021.006.039.011.02.006.033.01.026.008.027.008.017.005.042.013.017.005.051.017.008,0,.028.009.015.005.046.016.014,0,.088.032.011,0,.049.019.012,0,.052.02.008,0,.026.01.017.007.038.016.02.009.023.01.033.014.025.011.017.008.04.018.016.007.025.011.03.014.025.012.02.01.032.016.023.011.021.011.034.017.02.01.024.013.023.012.028.015.02.011.035.019.017.01.026.015.017.01.035.02.015.009.037.022.013.008.032.019.01.006.04.025.01.006.041.026.006,0,.039.025.006,0,.042.028.006,0c.046.03.091.061.135.093h0a5.635,5.635,0,0,1,2.17,3.057h5.528a5.631,5.631,0,0,1,4.457-4h.008l.053-.009h0l.053-.008h0l.053-.008h.007l.054-.007h0l.053-.006h0l.053-.006h.007l.054-.005h0l.052,0h.009l.052,0h.009l.054,0h0l.055,0h.006l.053,0h.01l.053,0h.36l.053,0h.011l.052,0h.008l.051,0h0l.051,0h.012l.049,0h.014l.043,0h.01l.048,0,.015,0,.046.005.015,0,.037,0,.016,0,.044.006.018,0,.043.006.019,0,.031,0,.025,0,.034.005.024,0,.036.006.025,0,.026,0,.028.005.033.006.023,0,.028.006.036.008.019,0,.043.01.018,0,.029.007.012,0,.052.013.01,0,.1.025h0l.063.017h0a5.631,5.631,0,0,1,2.919,1.988l0,0,.06.079,0,0,.034.047.009.012.024.034.013.018.014.02.016.023.017.025.016.023.011.016.023.035.009.014.025.038,0,.006.024.038,0,.007.027.043,0,.005a5.589,5.589,0,0,1,.611,1.393Zm0-12.25h4.594v-2.146l-2.849-5h-1.744a.516.516,0,0,0-.51.51v6.125a.519.519,0,0,0,.434.505A.5.5,0,0,0-1676.76-2016.625Z" transform="translate(1715.552 2043.677)" fill="#fbae2d"/>
      <g id="Group" transform="translate(0.508 0.509)">
        <path id="Vector-2" data-name="Vector" d="M8.928-.75a9.661,9.661,0,0,1,6.426,2.427,9.6,9.6,0,0,1,3.294,7.05,9.46,9.46,0,0,1-1.3,5.047,8.506,8.506,0,0,1-1.878,2.319,9.4,9.4,0,0,1-6.3,2.554l-.231,0a9.47,9.47,0,0,1-7.256-3.337,8.713,8.713,0,0,1-.891-1.179A9.447,9.447,0,0,1-.747,9.174,9.686,9.686,0,0,1,8.734-.748Zm.006,16.337.163,0a6.353,6.353,0,0,0,4.287-1.74q.036-.034.074-.066a5.4,5.4,0,0,0,1.218-1.51l.02-.035a6.4,6.4,0,0,0,.89-3.428,6.575,6.575,0,0,0-2.255-4.831l-.008-.007A6.626,6.626,0,0,0,2.314,9.1a6.384,6.384,0,0,0,1.033,3.357l.008.013a5.581,5.581,0,0,0,.589.787q.028.03.054.061A6.414,6.414,0,0,0,8.934,15.587Z" transform="translate(0.75 0.75)" fill="#fddeaa"/>
        <path id="Vector-3" data-name="Vector" d="M2.843,6.437a1.527,1.527,0,0,1-1.055-.421L-.274,4.055a1.531,1.531,0,1,1,2.11-2.22l1,.949L6.046-.32a1.531,1.531,0,0,1,2.128,2.2L3.908,6.006A1.527,1.527,0,0,1,2.843,6.437Z" transform="translate(5.734 6.815)" fill="#fbae2d"/>
      </g>
      <path id="Vector-4" data-name="Vector" d="M0,0H49V49H0Z" fill="none" opacity="0"/>
    </g>
  </g>
</svg>
